<svg stroke="currentColor" fill="currentColor" stroke-width="0" viewBox="0 0 512 512" height="1em" width="1em" xmlns="http://www.w3.org/2000/svg"><path d="M460.6 147.3L353 256.9c-.8.8-.8 2 0 2.8l75.3 80.2c5.1 5.1 5.1 13.3 0 18.4-2.5 2.5-5.9 3.8-9.2 3.8s-6.7-1.3-9.2-3.8l-75-79.9c-.8-.8-2.1-.8-2.9 0L313.7 297c-15.3 15.5-35.6 24.1-57.4 24.2-22.1.1-43.1-9.2-58.6-24.9l-17.6-17.9c-.8-.8-2.1-.8-2.9 0l-75 79.9c-2.5 2.5-5.9 3.8-9.2 3.8s-6.7-1.3-9.2-3.8c-5.1-5.1-5.1-13.3 0-18.4l75.3-80.2c.7-.8.7-2 0-2.8L51.4 147.3c-1.3-1.3-3.4-.4-3.4 1.4V368c0 17.6 14.4 32 32 32h352c17.6 0 32-14.4 32-32V148.7c0-1.8-2.2-2.6-3.4-1.4z"></path><path d="M256 295.1c14.8 0 28.7-5.8 39.1-16.4L452 119c-5.5-4.4-12.3-7-19.8-7H79.9c-7.5 0-14.4 2.6-19.8 7L217 278.7c10.3 10.5 24.2 16.4 39 16.4z"></path></svg>

<svg stroke="currentColor" fill="currentColor" stroke-width="0" viewBox="0 0 24 24" height="1em" width="1em" xmlns="http://www.w3.org/2000/svg"><path d="M20.322.75h1.176a1.75 1.75 0 0 1 1.75 1.749v1.177a10.75 10.75 0 0 1-2.925 7.374l-1.228 1.304a23.699 23.699 0 0 1-1.596 1.542v5.038c0 .615-.323 1.184-.85 1.5l-4.514 2.709a.75.75 0 0 1-1.12-.488l-.963-4.572a1.305 1.305 0 0 1-.14-.129L8.04 15.96l-1.994-1.873a1.305 1.305 0 0 1-.129-.14l-4.571-.963a.75.75 0 0 1-.49-1.12l2.71-4.514c.316-.527.885-.85 1.5-.85h5.037a23.668 23.668 0 0 1 1.542-1.594l1.304-1.23A10.753 10.753 0 0 1 20.321.75Zm-6.344 4.018v-.001l-1.304 1.23a22.275 22.275 0 0 0-3.255 3.851l-2.193 3.29 1.859 1.744a.545.545 0 0 1 .034.034l1.743 1.858 3.288-2.192a22.263 22.263 0 0 0 3.854-3.257l1.228-1.303a9.251 9.251 0 0 0 2.517-6.346V2.5a.25.25 0 0 0-.25-.25h-1.177a9.252 9.252 0 0 0-6.344 2.518ZM6.5 21c-1.209 1.209-3.901 1.445-4.743 1.49a.236.236 0 0 1-.18-.067.236.236 0 0 1-.067-.18c.045-.842.281-3.534 1.49-4.743.9-.9 2.6-.9 3.5 0 .9.9.9 2.6 0 3.5Zm-.592-8.588L8.17 9.017c.23-.346.47-.685.717-1.017H5.066a.25.25 0 0 0-.214.121l-2.167 3.612ZM16 15.112c-.333.248-.672.487-1.018.718l-3.393 2.262.678 3.223 3.612-2.167a.25.25 0 0 0 .121-.214ZM17.5 8a1.5 1.5 0 1 1-3.001-.001A1.5 1.5 0 0 1 17.5 8Z"></path></svg>